<svg id="Capa_1" data-name="Capa 1" xmlns="http://www.w3.org/2000/svg" viewBox="0 0 278.55 277.89"><defs><style>.cls-1{fill:#003da5;}.cls-2{fill:#fff;}</style></defs><title>favicon</title><rect class="cls-1" width="278.55" height="278.55" rx="31.14"/><path class="cls-2" d="M245.24,134.26l-49.68-20.47v-.2l45.07-5.6A103.44,103.44,0,0,0,231,86.1L184.44,94,180,120.1H158.4l47.95,19.14L158.4,158.32H180l4.4,26.08L231,192.34a103.3,103.3,0,0,0,9.64-21.9l-45.07-5.59v-.21l49.68-20.45c.11-1.68.11-3.3.11-4.95s0-3.33-.11-5"/><path class="cls-2" d="M120.19,158.32l-48-19.08,48-19.14H98.56L94.12,94,47.58,86.1A103.07,103.07,0,0,0,37.9,108L83,113.59v.2L33.32,134.26c-.1,1.65-.12,3.3-.12,5s0,3.27.12,4.95L83,164.64v.21L37.9,170.44a103.15,103.15,0,0,0,9.68,21.9l46.54-7.94,4.44-26.08Z"/><path class="cls-2" d="M120.39,120.23,139.48,72.3l19.12,47.93V98.62l26.05-4.44,8-46.54A102.89,102.89,0,0,0,170.67,38l-5.55,45.11h-.23l-20.45-49.7c-1.64-.05-3.28-.13-5-.13h0c-1.65,0-3.31.08-4.94.13l-20.43,49.7h-.25L108.28,38a103.84,103.84,0,0,0-21.92,9.67l8,46.54,26.07,4.44Z"/><path class="cls-2" d="M158.4,158.32l-19.12,48-19.09-48v21.61L94.11,184.4l-8,46.55a104,104,0,0,0,21.93,9.64l5.56-45.1h.25l20.43,49.69c1.63.12,3.29.12,4.94.12h0c1.68,0,3.32,0,5-.12l20.45-49.69h.23l5.55,45.1A103,103,0,0,0,192.41,231l-8-46.55-26-4.47Z"/><polygon class="cls-2" points="120.19 158.32 98.56 158.32 94.12 184.4 120.19 179.93 120.19 158.32"/><polygon class="cls-2" points="120.19 120.1 120.19 98.5 94.12 94.05 98.56 120.1 120.19 120.1"/><polygon class="cls-2" points="158.4 158.32 158.4 179.93 184.44 184.4 180.04 158.32 158.4 158.32"/><polygon class="cls-2" points="158.4 120.1 180.04 120.1 184.44 94.05 158.4 98.5 158.4 120.1"/></svg>